# xmcd
#
# Track frame offsets: 
#        150
#        19151
#        33765
#        49849
#        71840
#        88976
#        106592
#        120911
#        137019
#        158024
#        171141
#        192063
#        210358
#        224994
#        246786
#        265756
#        285940
#        316332
#
# Disc length: 4409 seconds
#
# Revision: 0
# Processed by: cddbd v1.5.2PL0 Copyright (c) Steve Scherf et al.
# Submitted via: ExactAudioCopy v0.95b4
#
DISCID=f6113712
DTITLE=Cool Breeze - LIVE
DYEAR=2014
DGENRE=Folk/Rock
TTITLE0=Somebody that i used to know
TTITLE1=I won't back down
TTITLE2=I'll be your Baby tonight
TTITLE3=Eye of the Tiger
TTITLE4=To love somebody
TTITLE5=Annie's Song
TTITLE6=Boat on the River
TTITLE7=Dancing in the Moonlight
TTITLE8=Chasing Cars
TTITLE9=Lady Madonna
TTITLE10=Smoke on the Water
TTITLE11=Staying Alive
TTITLE12=Hey Tonight
TTITLE13=I follow Rivers
TTITLE14=The only living Boy in New York
TTITLE15=Everything i own
TTITLE16=Hotel California
TTITLE17=Together as one
EXTD=
EXTT0=
EXTT1=
EXTT2=
EXTT3=
EXTT4=
EXTT5=
EXTT6=
EXTT7=
EXTT8=
EXTT9=
EXTT10=
EXTT11=
EXTT12=
EXTT13=
EXTT14=
EXTT15=
EXTT16=
EXTT17=
PLAYORDER=
